<?xml version="1.0" standalone="no"?>
<svg xmlns:xlink="http://www.w3.org/1999/xlink" id="wave" style="transform:rotate(180deg); transition: 0.3s" viewBox="0 0 1440 100" version="1.1" xmlns="http://www.w3.org/2000/svg"><defs><linearGradient id="sw-gradient-0" x1="0" x2="0" y1="1" y2="0"><stop stop-color="rgba(255, 249, 234, 1)" offset="0%"/><stop stop-color="rgba(255, 249, 234, 1)" offset="100%"/></linearGradient></defs><path style="transform:translate(0, 0px); opacity:1" fill="url(#sw-gradient-0)" d="M0,30L10,33.3C20,37,40,43,60,51.7C80,60,100,70,120,65C140,60,160,40,180,26.7C200,13,220,7,240,16.7C260,27,280,53,300,58.3C320,63,340,47,360,35C380,23,400,17,420,18.3C440,20,460,30,480,30C500,30,520,20,540,18.3C560,17,580,23,600,28.3C620,33,640,37,660,41.7C680,47,700,53,720,58.3C740,63,760,67,780,65C800,63,820,57,840,51.7C860,47,880,43,900,36.7C920,30,940,20,960,18.3C980,17,1000,23,1020,25C1040,27,1060,23,1080,18.3C1100,13,1120,7,1140,18.3C1160,30,1180,60,1200,75C1220,90,1240,90,1260,80C1280,70,1300,50,1320,48.3C1340,47,1360,63,1380,65C1400,67,1420,53,1430,46.7L1440,40L1440,100L1430,100C1420,100,1400,100,1380,100C1360,100,1340,100,1320,100C1300,100,1280,100,1260,100C1240,100,1220,100,1200,100C1180,100,1160,100,1140,100C1120,100,1100,100,1080,100C1060,100,1040,100,1020,100C1000,100,980,100,960,100C940,100,920,100,900,100C880,100,860,100,840,100C820,100,800,100,780,100C760,100,740,100,720,100C700,100,680,100,660,100C640,100,620,100,600,100C580,100,560,100,540,100C520,100,500,100,480,100C460,100,440,100,420,100C400,100,380,100,360,100C340,100,320,100,300,100C280,100,260,100,240,100C220,100,200,100,180,100C160,100,140,100,120,100C100,100,80,100,60,100C40,100,20,100,10,100L0,100Z"/></svg>